<svg width="28" height="28" viewBox="0 0 28 28" fill="none" xmlns="http://www.w3.org/2000/svg">
<path fill-rule="evenodd" clip-rule="evenodd" d="M14 28C21.7319 28 28 21.732 28 14C28 6.26801 21.7319 0 14 0C6.26807 0 0 6.26801 0 14C0 21.732 6.26807 28 14 28ZM15.0186 4.8075L16.6846 10.293V10.3043H21.728C22.8271 10.3043 23.2808 11.7097 22.3853 12.3557L18.2598 15.3025L19.8809 20.5273C20.2095 21.5813 18.9854 22.4313 18.1128 21.7626L13.9307 18.5779L9.74854 21.7513C8.87549 22.42 7.65186 21.57 7.98047 20.5159L9.60107 15.2911L5.47559 12.3444C4.58008 11.7097 5.03369 10.293 6.13281 10.293H11.1763L12.8535 4.8075C13.1709 3.73083 14.6899 3.73083 15.0186 4.8075Z" fill="#333333"/>
</svg>
